<mxfile host="app.diagrams.net" modified="2023-07-04T11:56:53.250Z" agent="Mozilla/5.0 (Macintosh; Intel Mac OS X 10_15_7) AppleWebKit/537.36 (KHTML, like Gecko) Chrome/114.0.0.0 Safari/537.36" version="21.5.2" etag="5r2xNjmW4_TREBXWoLY2" type="github">
  <diagram name="Page-1" id="-pVYqu1fRLusAFbeQSIM">
    <mxGraphModel>
      <root>
        <mxCell id="0" />
        <mxCell id="1" parent="0" />
      </root>
    </mxGraphModel>
  </diagram>
</mxfile>
